<svg width="166" height="89" viewBox="0 0 166 89" fill="none" xmlns="http://www.w3.org/2000/svg">
<path d="M6.40101 63.9858C6.36696 63.8504 6.44553 63.7122 6.57928 63.6722L151.146 20.4354C154.807 19.3406 158.642 21.5204 159.573 25.2259C160.503 28.9233 158.168 32.6511 154.435 33.4281L6.70721 64.1776C6.57022 64.2061 6.43513 64.1215 6.40101 63.9858Z" fill="#5599FF"/>
<path d="M1.7678 45.5592C1.73368 45.4235 1.8116 45.2848 1.94526 45.2433L117.438 9.39473C121.076 8.26528 124.917 10.4225 125.846 14.1175C126.773 17.8026 124.424 21.5123 120.697 22.2508L2.0746 45.7535C1.93693 45.7808 1.80203 45.6953 1.7678 45.5592Z" fill="#5599FF"/>
<path d="M11.0341 82.4119C10.9998 82.2755 11.0764 82.1357 11.2098 82.0912L91.8315 55.1702C95.4237 53.9707 99.2772 56.0813 100.201 59.7542C101.121 63.4135 98.7447 67.0855 95.0296 67.7454L11.3421 82.6112C11.203 82.6359 11.0686 82.5489 11.0341 82.4119Z" fill="#5599FF"/>
</svg>
