<svg width="24" height="24" viewBox="0 0 24 24" fill="none" xmlns="http://www.w3.org/2000/svg">
<path fill-rule="evenodd" clip-rule="evenodd" d="M18.378 5.628C17.5475 4.79236 16.5594 4.12979 15.4711 3.67869C14.3827 3.22758 13.2156 2.9969 12.0375 3C7.09875 3 3.075 7.02 3.075 11.9587C3.07126 13.5313 3.48372 15.0769 4.2705 16.4385L3 21.0818L7.752 19.8338C9.06599 20.5495 10.5382 20.9252 12.0345 20.9265H12.0382C16.9778 20.9265 20.997 16.9073 21 11.9648C21 9.5715 20.0685 7.3215 18.378 5.62725V5.628ZM12.0375 19.4123H12.0345C10.7007 19.4122 9.39131 19.054 8.24325 18.375L7.971 18.2138L5.1495 18.9525L5.9025 16.2038L5.727 15.9225C4.98045 14.7354 4.58521 13.3611 4.587 11.9587C4.587 7.85475 7.92975 4.515 12.0405 4.515C13.0188 4.51256 13.9879 4.7042 14.8916 5.07882C15.7954 5.45345 16.6158 6.00363 17.3055 6.6975C17.9986 7.38804 18.5479 8.20906 18.9219 9.11313C19.2959 10.0172 19.487 10.9864 19.4842 11.9648C19.4842 16.0725 16.1415 19.4123 12.0367 19.4123H12.0375ZM16.1213 13.8337C15.8985 13.7227 14.7967 13.1812 14.592 13.1077C14.3872 13.0312 14.2373 12.996 14.088 13.2188C13.938 13.4438 13.5105 13.9485 13.3793 14.0978C13.2503 14.244 13.1182 14.265 12.8955 14.1533C12.6705 14.0423 11.9497 13.8045 11.094 13.0402C10.4288 12.4477 9.978 11.7128 9.849 11.49C9.717 11.265 9.834 11.145 9.94575 11.0325C10.0477 10.9335 10.1708 10.7723 10.2825 10.6403C10.3935 10.512 10.4325 10.4183 10.5075 10.2683C10.581 10.119 10.5435 9.987 10.4872 9.876C10.4317 9.765 9.984 8.66025 9.7965 8.21175C9.61425 7.77525 9.42975 7.83675 9.2925 7.8285C9.1635 7.8225 9.01425 7.8225 8.865 7.8225C8.715 7.8225 8.472 7.878 8.2665 8.10375C8.06175 8.3265 7.48425 8.86875 7.48425 9.96975C7.48425 11.0715 8.28675 12.1372 8.39925 12.2872C8.51025 12.4335 9.978 14.6947 12.2242 15.6653C12.7583 15.8963 13.1738 16.0343 13.4993 16.137C14.0355 16.3065 14.5245 16.2833 14.9115 16.227C15.342 16.1633 16.2352 15.6855 16.4227 15.1613C16.608 14.64 16.608 14.1915 16.5518 14.0978C16.4963 14.004 16.347 13.9478 16.1213 13.8337Z" fill="white"/>
</svg>
